<svg xmlns="http://www.w3.org/2000/svg" viewBox="0 0 256 256"><defs><radialGradient id="b" cx="161.8" cy="68.9" r="95.4" gradientTransform="matrix(1 0 0 -1 0 249)" gradientUnits="userSpaceOnUse"><stop offset=".7" stop-opacity="0"/><stop offset=".9" stop-opacity=".5"/><stop offset="1"/></radialGradient><radialGradient id="d" cx="-340.3" cy="63" r="143.2" gradientTransform="matrix(0 -1 -1 0 177 -125)" gradientUnits="userSpaceOnUse"><stop offset=".8" stop-opacity="0"/><stop offset=".9" stop-opacity=".5"/><stop offset="1"/></radialGradient><radialGradient id="e" cx="113.4" cy="570.2" r="202.4" gradientTransform="matrix(0 1 2 0 -1179 -107)" gradientUnits="userSpaceOnUse"><stop offset="0" stop-color="#35c1f1"/><stop offset=".1" stop-color="#34c1ed"/><stop offset=".2" stop-color="#2fc2df"/><stop offset=".3" stop-color="#2bc3d2"/><stop offset=".7" stop-color="#36c752"/></radialGradient><radialGradient id="f" cx="376.5" cy="568" r="97.3" gradientTransform="matrix(0 1 1 0 -304 -148)" gradientUnits="userSpaceOnUse"><stop offset="0" stop-color="#66eb6e"/><stop offset="1" stop-color="#66eb6e" stop-opacity="0"/></radialGradient><linearGradient id="a" x1="63.3" x2="241.7" y1="84" y2="84" gradientTransform="matrix(1 0 0 -1 0 266)" gradientUnits="userSpaceOnUse"><stop offset="0" stop-color="#0c59a4"/><stop offset="1" stop-color="#114a8b"/></linearGradient><linearGradient id="c" x1="157.3" x2="46" y1="161.4" y2="40.1" gradientTransform="matrix(1 0 0 -1 0 266)" gradientUnits="userSpaceOnUse"><stop offset="0" stop-color="#1b9de2"/><stop offset=".2" stop-color="#1595df"/><stop offset=".7" stop-color="#0680d7"/><stop offset="1" stop-color="#0078d4"/></linearGradient></defs><path d="M236 196a94 94 0 0 1-11 4 102 102 0 0 1-36 7c-47 0-88-33-88-75a32 32 0 0 1 16-27c-43 2-54 46-54 73 0 74 68 81 83 81 8 0 20-2 27-5h1a128 128 0 0 0 67-53 4 4 0 0 0-5-6Z" style="fill:url(#a)" transform="translate(-5 -5)"/><path d="M236 196a94 94 0 0 1-11 4 102 102 0 0 1-36 7c-47 0-88-33-88-75a32 32 0 0 1 16-27c-43 2-54 46-54 73 0 74 68 81 83 81 8 0 20-2 27-5h1a128 128 0 0 0 67-53 4 4 0 0 0-5-6Z" style="isolation:isolate;opacity:.35;fill:url(#b)" transform="translate(-5 -5)"/><path d="M110 246a79 79 0 0 1-22-21 81 81 0 0 1 29-120c3-1 9-4 16-4a32 32 0 0 1 25 13 32 32 0 0 1 7 19c0-1 24-80-80-80-44 0-80 42-80 78a130 130 0 0 0 12 56 128 128 0 0 0 156 67 76 76 0 0 1-63-8Z" style="fill:url(#c)" transform="translate(-5 -5)"/><path d="M110 246a79 79 0 0 1-22-21 81 81 0 0 1 29-120c3-1 9-4 16-4a32 32 0 0 1 25 13 32 32 0 0 1 7 19c0-1 24-80-80-80-44 0-80 42-80 78a130 130 0 0 0 12 56 128 128 0 0 0 156 67 76 76 0 0 1-63-8Z" style="opacity:.41;fill:url(#d);isolation:isolate" transform="translate(-5 -5)"/><path d="M157 154c-1 1-3 2-3 5s1 6 4 8c15 10 42 8 42 8a60 60 0 0 0 30-8 61 61 0 0 0 31-53c0-22-8-37-12-44-21-41-67-65-116-65A128 128 0 0 0 5 131c0-36 36-66 80-66 3 0 23 0 42 10a73 73 0 0 1 30 29c7 11 8 25 8 30s-3 13-8 20Z" style="fill:url(#e)" transform="translate(-5 -5)"/><path d="M157 154c-1 1-3 2-3 5s1 6 4 8c15 10 42 8 42 8a60 60 0 0 0 30-8 61 61 0 0 0 31-53c0-22-8-37-12-44-21-41-67-65-116-65A128 128 0 0 0 5 131c0-36 36-66 80-66 3 0 23 0 42 10a73 73 0 0 1 30 29c7 11 8 25 8 30s-3 13-8 20Z" style="fill:url(#f)" transform="translate(-5 -5)"/></svg>